<svg width="80" height="80" viewBox="0 0 80 80" fill="none" xmlns="http://www.w3.org/2000/svg">
<path d="M25 55.833C25 47.246 28.535 39.473 34.219 33.877C31.156 32.471 27.761 31.667 24.167 31.667C10.82 31.667 0 42.487 0 55.833C0 69.18 10.82 80 24.167 80C27.761 80 31.155 79.196 34.219 77.79C28.535 72.194 25 64.421 25 55.833Z" fill="white"/>
<path d="M55.834 54.9998C47.247 54.9998 39.474 51.4648 33.878 45.7778C32.472 48.8438 31.668 52.2388 31.668 55.8328C31.668 69.1798 42.488 79.9998 55.834 79.9998C69.181 79.9998 80.001 69.1798 80.001 55.8328C80.001 52.2388 79.197 48.8448 77.791 45.7778C72.195 51.4648 64.422 54.9998 55.834 54.9998Z" fill="white"/>
<path d="M55.8323 0C52.2383 0 48.8443 0.804 45.7773 2.21C51.4643 7.806 54.9993 15.579 54.9993 24.167C54.9993 32.754 51.4643 40.527 45.7773 46.123C48.8433 47.529 52.2383 48.333 55.8323 48.333C69.1793 48.333 79.9993 37.513 79.9993 24.167C79.9993 10.82 69.1793 0 55.8323 0Z" fill="white"/>
<path d="M24.167 25C32.754 25 40.527 28.535 46.123 34.219C47.529 31.156 48.333 27.761 48.333 24.167C48.333 10.82 37.513 0 24.167 0C10.82 0 0 10.82 0 24.167C0 27.761 0.804 31.155 2.21 34.219C7.806 28.535 15.579 25 24.167 25Z" fill="white"/>
</svg>
