<svg width="80" height="80" viewBox="0 0 80 80" fill="none" xmlns="http://www.w3.org/2000/svg">
<path d="M24.167 32.167C27.43 32.167 30.526 32.8438 33.3519 34.0409C27.8799 39.6833 24.5 47.3689 24.5 55.833C24.5 64.298 27.8799 71.9837 33.3519 77.6261C30.5251 78.8232 27.43 79.5 24.167 79.5C11.0961 79.5 0.5 68.9039 0.5 55.833C0.5 42.7631 11.0961 32.167 24.167 32.167Z" stroke="#F1F1F1"/>
<path d="M34.042 46.6453C39.6844 52.12 47.37 55.4998 55.834 55.4998C64.2989 55.4998 71.9845 52.12 77.6269 46.6453C78.8241 49.4746 79.501 52.5698 79.501 55.8328C79.501 68.9037 68.9048 79.4998 55.834 79.4998C42.7641 79.4998 32.168 68.9037 32.168 55.8328C32.168 52.5698 32.8448 49.4738 34.042 46.6453Z" stroke="#F1F1F1"/>
<path d="M46.6448 2.37404C49.4741 1.17684 52.5693 0.5 55.8323 0.5C68.9032 0.5 79.4993 11.0961 79.4993 24.167C79.4993 37.2368 68.9032 47.833 55.8323 47.833C52.5693 47.833 49.4733 47.1562 46.6448 45.959C52.1195 40.3166 55.4993 32.631 55.4993 24.167C55.4993 15.7021 52.1196 8.01645 46.6448 2.37404Z" stroke="#F1F1F1"/>
<path d="M47.833 24.167C47.833 27.43 47.1562 30.526 45.9591 33.3519C40.3167 27.8799 32.6311 24.5 24.167 24.5C15.702 24.5 8.01633 27.8799 2.37394 33.3519C1.17683 30.5251 0.5 27.43 0.5 24.167C0.5 11.0961 11.0961 0.5 24.167 0.5C37.2368 0.5 47.833 11.0961 47.833 24.167Z" stroke="#F1F1F1"/>
</svg>
