<svg width="48" height="55" viewBox="0 0 48 55" fill="none" xmlns="http://www.w3.org/2000/svg">
<path d="M28.0227 54.4758C22.3185 52.8775 17.6023 49.4497 14.0738 44.9898L14.0737 44.9897C12.0859 42.4762 10.6934 39.615 9.67136 36.5571L9.67135 36.5571C8.72268 33.7176 8.21872 30.6782 8.35883 27.4931C8.31119 25.6166 8.50176 23.7991 8.83018 22.0432C9.17331 20.2062 9.60463 18.4009 10.302 16.6765L10.302 16.6764C11.2707 14.2832 12.4744 12.0327 14.0696 10.0037L14.0698 10.0036C17.6001 5.51803 22.3448 2.08993 28.0781 0.502303C24.0006 0.449025 20.1194 1.32667 16.5182 2.93336C14.395 3.88102 12.4724 5.12326 10.6623 6.58681L10.6622 6.58689C6.36366 10.0607 3.16446 14.8221 1.51135 20.2946C0.827371 22.5589 0.5663 24.9851 0.500294 27.493C0.690725 31.6969 1.53902 35.6957 3.29627 39.2055C5.09636 42.8009 7.56228 45.9612 10.6549 48.4086L28.0227 54.4758ZM28.0227 54.4758C21.541 54.5222 15.5291 52.2638 10.655 48.4086L28.0227 54.4758Z" fill="#F1F1F1" stroke="#F1F1F1"/>
<mask id="path-2-inside-1_95_108" fill="white">
<path fill-rule="evenodd" clip-rule="evenodd" d="M47.9999 54.7903C32.3679 54.7903 19.6758 42.5561 19.6758 27.4882C19.6758 12.4186 32.3679 0.186035 47.9999 0.186035"/>
</mask>
<path fill-rule="evenodd" clip-rule="evenodd" d="M47.9999 54.7903C32.3679 54.7903 19.6758 42.5561 19.6758 27.4882C19.6758 12.4186 32.3679 0.186035 47.9999 0.186035" fill="#F1F1F1" stroke="#F1F1F1" stroke-width="2" mask="url(#path-2-inside-1_95_108)"/>
</svg>
