<svg width="48" height="55" viewBox="0 0 48 55" fill="none" xmlns="http://www.w3.org/2000/svg">
<path d="M14.0737 44.9897L14.0738 44.9898C17.6023 49.4497 22.3185 52.8775 28.0227 54.4758C21.541 54.5222 15.5291 52.2638 10.655 48.4086C7.56233 45.9613 5.09638 42.8009 3.29627 39.2055L2.84917 39.4293L3.29627 39.2055C1.53902 35.6957 0.690725 31.6969 0.500294 27.493C0.5663 24.9851 0.827371 22.5589 1.51135 20.2946C3.16446 14.8221 6.36366 10.0607 10.6622 6.58689L10.6623 6.58681C12.4724 5.12324 14.3951 3.88099 16.5183 2.93333C20.1195 1.32666 24.0006 0.449026 28.0781 0.502303C22.3448 2.08993 17.6001 5.51803 14.0698 10.0036L14.0696 10.0037C12.4744 12.0327 11.2707 14.2832 10.302 16.6764L10.302 16.6765C9.60462 18.401 9.17329 20.2063 8.83016 22.0433C8.50175 23.7992 8.31119 25.6166 8.35883 27.4931C8.21872 30.6782 8.72268 33.7176 9.67135 36.5571L9.67136 36.5571C10.6934 39.615 12.0859 42.4762 14.0737 44.9897Z" stroke="#FCE1BE"/>
<mask id="path-2-inside-1_13_461" fill="white">
<path fill-rule="evenodd" clip-rule="evenodd" d="M47.9999 54.7903C32.3679 54.7903 19.6758 42.5561 19.6758 27.4882C19.6758 12.4186 32.3679 0.186035 47.9999 0.186035"/>
</mask>
<path d="M47.9999 53.7903C32.8852 53.7903 20.6758 41.9695 20.6758 27.4882H18.6758C18.6758 43.1427 31.8506 55.7903 47.9999 55.7903V53.7903ZM20.6758 27.4882C20.6758 13.0052 32.8852 1.18604 47.9999 1.18604V-0.813965C31.8506 -0.813965 18.6758 11.8319 18.6758 27.4882H20.6758Z" fill="#FCE1BE" mask="url(#path-2-inside-1_13_461)"/>
</svg>
