<svg width="1190" height="524" viewBox="0 0 1190 524" fill="none" xmlns="http://www.w3.org/2000/svg">
<path d="M285.523 164C290.723 159 293.923 144 293.923 127.6V40.2C293.923 23.8 290.723 8.8 285.523 3.79999H307.323C316.723 3.79999 320.723 0.799991 329.523 0.799991C363.723 0.799991 394.723 27.8 394.723 83.8C394.723 140.2 363.723 167.2 333.923 167.2C319.723 167.2 317.123 164 308.923 164H285.523ZM308.923 127.6C308.923 155.4 324.923 162.8 336.523 162.8C358.723 162.8 382.323 144.8 377.323 83.8C372.323 23 344.723 4.79999 328.723 4.79999C310.123 4.79999 308.923 23.8 308.923 40V127.6ZM396.664 164C401.864 159 405.064 144 405.064 127.6V40.2C405.064 23.8 401.864 8.8 396.664 3.79999H428.464C423.264 8.8 420.064 23.8 420.064 40.2V127.6C420.064 144 423.264 159 428.464 164H396.664ZM492.922 167.2C456.522 167.2 425.922 140.2 425.922 83.8C425.922 27.8 456.522 0.799991 490.722 0.799991C508.322 0.799991 525.122 7.99999 537.322 22.6L521.322 42.8C518.122 16 498.322 6.19999 483.722 6.19999C461.722 6.19999 438.322 23 443.322 83.8C448.322 144.8 475.722 163 497.722 163C513.122 163 524.722 156.2 524.722 123.2V114.8C524.722 98.4 516.722 86.8 500.322 78.4H540.122V125.2C539.322 159.6 516.322 167.2 492.922 167.2ZM544.141 164C549.341 159 552.541 144 552.541 127.6V40.2C552.541 23.8 549.341 8.8 544.141 3.79999H575.941C570.741 8.8 567.541 23.8 567.541 40.2V127.6C567.541 144 570.741 159 575.941 164H544.141ZM625.594 164C630.794 159 633.994 144 633.994 127.6V40.2C633.994 23.8 633.594 7.8 617.194 7.8H616.394C589.994 7.8 580.594 19.6 574.594 24.8L579.394 7.8L580.594 3.79999H702.394L703.594 7.8L708.394 24.8C702.394 19.6 692.994 7.8 666.594 7.8H665.794C649.394 7.8 648.994 23.8 648.994 40.2V127.6C648.994 144 652.194 159 657.394 164H625.594ZM766.92 164C772.12 159 768.52 145.8 762.72 129L750.52 95.4C754.32 138.2 742.32 164.6 711.32 164.6C680.12 164.6 677.92 137.4 690.12 104L720.52 19.6C716.12 12.2 711.72 6.59999 708.72 3.79999H733.52L779.52 130.2C786.12 146.4 795.32 159.2 800.32 164H766.92ZM694.52 103.6C682.32 137.2 683.72 160.6 711.32 160.6C725.32 160.6 734.12 149.2 736.72 128.8C737.72 113.2 729.92 106.4 718.32 105.6L736.52 96.4L748.72 90.4L729.52 37.6C727.52 32.8 725.32 28.2 723.12 24L694.52 103.6ZM799.633 164C804.833 159 808.033 144 808.033 127.6V40.2C808.033 23.8 804.833 8.8 799.633 3.79999H831.433C826.233 8.8 823.033 23.8 823.033 40.2V127.6C823.033 144 823.433 160 840.033 160H862.633C889.033 160 899.833 148.2 904.433 143L899.633 160L898.433 164H799.633ZM0.351563 342C5.55156 337 8.75156 322 8.75156 305.6V218.2C8.75156 201.8 5.55156 186.8 0.351563 181.8H22.1516C31.5516 181.8 35.5516 178.8 44.3516 178.8C78.5516 178.8 109.552 205.8 109.552 261.8C109.552 318.2 78.5516 345.2 48.7516 345.2C34.5516 345.2 31.9516 342 23.7516 342H0.351563ZM23.7516 305.6C23.7516 333.4 39.7516 340.8 51.3516 340.8C73.5516 340.8 97.1516 322.8 92.1516 261.8C87.1516 201 59.5516 182.8 43.5516 182.8C24.9516 182.8 23.7516 201.8 23.7516 218V305.6ZM111.492 342C116.692 337 119.892 322 119.892 305.6V218.2C119.892 201.8 116.692 186.8 111.492 181.8H210.292V197.4C205.292 192.2 198.092 185.8 173.892 185.8H151.692C135.292 185.8 134.892 201.8 134.892 218.2V251.4C139.292 243.6 147.292 240.6 159.292 240.6C245.492 240.6 209.492 341.2 276.092 341.2C293.892 341.2 311.892 326.8 311.892 303C311.892 256.6 230.692 268.6 230.692 212.8C230.692 191.6 251.292 178.8 274.692 178.8C298.492 178.8 306.492 191.6 320.692 191.6L306.692 209.2C304.692 193.6 294.492 182.8 275.692 182.8C261.292 182.8 246.092 191.8 246.092 206.8C246.092 256.6 327.892 238.4 327.892 300.4C327.892 327.6 304.492 345.2 276.092 345.2C197.692 345.2 216.292 244.6 159.292 244.6C142.892 244.6 134.892 250.8 134.892 271V305.6C134.892 322 135.292 338 151.892 338H172.492C198.892 338 209.692 326.2 214.292 321L209.492 338L208.292 342H111.492ZM329.078 342C334.278 337 337.478 322 337.478 305.6V218.2C337.478 201.8 334.278 186.8 329.078 181.8H360.878C355.678 186.8 352.478 201.8 352.478 218.2V305.6C352.478 322 355.678 337 360.878 342H329.078ZM425.336 345.2C388.936 345.2 358.336 318.2 358.336 261.8C358.336 205.8 388.936 178.8 423.136 178.8C440.736 178.8 457.536 186 469.736 200.6L453.736 220.8C450.536 194 430.736 184.2 416.136 184.2C394.136 184.2 370.736 201 375.736 261.8C380.736 322.8 408.136 341 430.136 341C445.536 341 457.136 334.2 457.136 301.2V292.8C457.136 276.4 449.136 264.8 432.736 256.4H472.536V303.2C471.736 337.6 448.736 345.2 425.336 345.2ZM581.155 342L505.955 216.8C502.355 211 498.755 205.4 495.155 200.4V305.6C495.155 322 498.355 337 503.555 342H482.755C487.955 337 491.155 322 491.155 305.6V195.2C485.955 188.6 480.755 183.6 476.555 181.8H511.355C508.555 187.4 514.355 200.6 523.955 216.8L581.155 312.2V218.2C581.155 201.8 577.955 186.8 572.755 181.8H593.555C588.355 186.8 585.155 201.8 585.155 218.2V342H581.155ZM597.461 342C602.661 337 605.861 322 605.861 305.6V218.2C605.861 201.8 602.661 186.8 597.461 181.8H696.261V197.4C691.261 192.2 684.061 185.8 659.861 185.8H637.661C621.261 185.8 620.861 201.8 620.861 218.2V259.4C625.261 251.6 633.261 248.6 645.261 248.6H651.861C668.261 248.6 683.261 243.2 688.261 238V263.2C683.261 258 668.261 252.6 651.861 252.6H645.261C628.861 252.6 620.861 258.8 620.861 279V305.6C620.861 322 621.261 338 637.861 338H658.461C684.861 338 695.661 326.2 700.261 321L695.461 338L694.261 342H597.461ZM702.352 342C707.552 337 710.752 322 710.752 305.6V218.2C710.752 201.8 707.552 186.8 702.352 181.8H724.152C733.552 181.8 737.952 178.8 748.552 178.8C779.952 178.8 805.952 196.2 805.952 232.2C805.952 252 796.352 267.6 782.352 275.8C783.952 278.6 785.152 281.6 786.352 285L795.352 311.4C801.152 326.6 808.552 337 814.952 342H789.552L770.352 285.6C767.352 276.6 759.352 259.2 746.352 259.2C735.152 259.2 725.752 269.6 725.752 304.2V305.6C725.752 322 728.952 337 734.152 342H702.352ZM725.752 277C725.752 266.6 733.952 254.2 747.952 254.2C760.152 254.2 770.552 259 778.152 269C785.952 259.8 789.752 244.4 787.352 226.2C782.752 191.8 761.552 182.8 746.352 182.8C726.952 182.8 725.752 201.8 725.752 218V277ZM849.047 342C854.247 337 857.447 322 857.447 305.6V218.2C857.447 201.8 854.247 186.8 849.047 181.8H947.847V197.4C942.847 192.2 935.647 185.8 911.447 185.8H889.247C872.847 185.8 872.447 201.8 872.447 218.2V259.4C876.647 252 884.247 248.8 895.447 248.6H897.647C914.047 248.6 929.047 243.2 934.047 238V263.2C929.047 258 914.047 252.6 897.647 252.6H896.847C880.447 252.6 872.447 258.8 872.447 279V305.6C872.447 322 875.647 337 880.847 342H849.047ZM1009.71 345.2C975.506 345.2 944.906 318.2 944.906 261.8C944.906 205.8 975.506 178.8 1009.71 178.8C1043.91 178.8 1074.91 205.8 1074.91 261.8C1074.91 318.2 1043.91 345.2 1009.71 345.2ZM962.306 261.8C967.306 322.8 994.706 339.8 1016.71 339.8C1038.91 339.8 1062.51 322.8 1057.51 261.8C1052.51 201 1024.91 184.2 1002.71 184.2C980.706 184.2 957.306 201 962.306 261.8ZM983.706 261.8C996.106 261.8 1010.31 252 1010.31 226.8C1010.31 252 1023.51 261.8 1036.91 261.8C1023.51 261.8 1010.31 272.6 1010.31 296.8C1010.31 272.6 996.106 261.8 983.706 261.8ZM1076.99 342C1082.19 337 1085.39 322 1085.39 305.6V218.2C1085.39 201.8 1082.19 186.8 1076.99 181.8H1098.79C1108.19 181.8 1112.59 178.8 1123.19 178.8C1154.59 178.8 1180.59 196.2 1180.59 232.2C1180.59 252 1170.99 267.6 1156.99 275.8C1158.59 278.6 1159.79 281.6 1160.99 285L1169.99 311.4C1175.79 326.6 1183.19 337 1189.59 342H1164.19L1144.99 285.6C1141.99 276.6 1133.99 259.2 1120.99 259.2C1109.79 259.2 1100.39 269.6 1100.39 304.2V305.6C1100.39 322 1103.59 337 1108.79 342H1076.99ZM1100.39 277C1100.39 266.6 1108.59 254.2 1122.59 254.2C1134.79 254.2 1145.19 259 1152.79 269C1160.59 259.8 1164.39 244.4 1161.99 226.2C1157.39 191.8 1136.19 182.8 1120.99 182.8C1101.59 182.8 1100.39 201.8 1100.39 218V277ZM153.891 520C159.091 515 162.291 500 162.291 483.6V396.2C162.291 379.8 159.091 364.8 153.891 359.8H252.691V375.4C247.691 370.2 240.491 363.8 216.291 363.8H194.091C177.691 363.8 177.291 379.8 177.291 396.2V437.4C181.491 430 189.091 426.8 200.291 426.6H202.491C218.891 426.6 233.891 421.2 238.891 416V441.2C233.891 436 218.891 430.6 202.491 430.6H201.691C185.291 430.6 177.291 436.8 177.291 457V483.6C177.291 500 180.491 515 185.691 520H153.891ZM314.55 523.2C280.35 523.2 249.75 496.2 249.75 439.8C249.75 383.8 280.35 356.8 314.55 356.8C348.75 356.8 379.75 383.8 379.75 439.8C379.75 496.2 348.75 523.2 314.55 523.2ZM267.15 439.8C272.15 500.8 299.55 517.8 321.55 517.8C343.75 517.8 367.35 500.8 362.35 439.8C357.35 379 329.75 362.2 307.55 362.2C285.55 362.2 262.15 379 267.15 439.8ZM288.55 439.8C300.95 439.8 315.15 430 315.15 404.8C315.15 430 328.35 439.8 341.75 439.8C328.35 439.8 315.15 450.6 315.15 474.8C315.15 450.6 300.95 439.8 288.55 439.8ZM390.236 468.4V396.2C390.236 379.8 387.036 364.8 381.836 359.8H413.636C408.436 364.8 405.236 379.8 405.236 396.2V466.6C405.236 502.6 419.236 519.2 445.436 519.2C478.036 519.2 492.236 507 492.236 466.6V373.2C487.036 366.6 481.836 361.6 477.636 359.8H512.436C509.636 365.4 515.436 378.6 525.036 394.8L582.236 490.2V396.2C582.236 379.8 579.036 364.8 573.836 359.8H594.636C589.436 364.8 586.236 379.8 586.236 396.2V520H582.236L507.036 394.8C503.436 389 499.836 383.4 496.236 378.4V466.6V468.4C495.636 512.4 476.836 523.2 445.436 523.2C410.036 523.2 390.836 506 390.236 468.4ZM598.641 520C603.841 515 607.041 500 607.041 483.6V396.2C607.041 379.8 603.841 364.8 598.641 359.8H620.441C629.841 359.8 633.841 356.8 642.641 356.8C676.841 356.8 707.841 383.8 707.841 439.8C707.841 496.2 676.841 523.2 647.041 523.2C632.841 523.2 630.241 520 622.041 520H598.641ZM622.041 483.6C622.041 511.4 638.041 518.8 649.641 518.8C671.841 518.8 695.441 500.8 690.441 439.8C685.441 379 657.841 360.8 641.841 360.8C623.241 360.8 622.041 379.8 622.041 396V483.6ZM709.781 520C714.981 515 718.181 500 718.181 483.6V396.2C718.181 379.8 714.981 364.8 709.781 359.8H808.581V375.4C803.581 370.2 796.381 363.8 772.181 363.8H749.981C733.581 363.8 733.181 379.8 733.181 396.2V437.4C737.581 429.6 745.581 426.6 757.581 426.6H764.181C780.581 426.6 795.581 421.2 800.581 416V441.2C795.581 436 780.581 430.6 764.181 430.6H757.581C741.181 430.6 733.181 436.8 733.181 457V483.6C733.181 500 733.581 516 750.181 516H770.781C797.181 516 807.981 504.2 812.581 499L807.781 516L806.581 520H709.781ZM814.672 520C819.872 515 823.072 500 823.072 483.6V396.2C823.072 379.8 819.872 364.8 814.672 359.8H836.472C845.872 359.8 850.272 356.8 860.872 356.8C892.272 356.8 918.272 374.2 918.272 410.2C918.272 429 909.472 444 896.872 452.4C897.672 454 898.272 455.8 898.872 457.6C910.472 495.6 922.672 519.2 966.672 519.2C994.072 519.2 1012.07 504.8 1012.07 481C1012.07 434.6 930.872 446.6 930.872 390.8C930.872 369.6 951.472 356.8 974.872 356.8C998.672 356.8 1006.67 369.6 1020.87 369.6L1006.87 387.2C1004.87 371.6 994.672 360.8 975.872 360.8C961.472 360.8 946.272 369.8 946.272 384.8C946.272 434.6 1028.07 416.4 1028.07 478.4C1028.07 505.6 1004.67 522.2 966.672 523.2C910.672 523.2 896.072 496.8 882.672 457.6C879.672 448.6 871.672 431.2 858.672 431.2C847.472 431.2 838.072 441.6 838.072 476.2V483.6C838.072 500 841.272 515 846.472 520H814.672ZM838.072 449C838.072 438.6 846.272 426.2 860.272 426.2C873.672 426.2 884.872 432 892.672 444.2C899.072 434.8 901.872 420.8 899.672 404.2C895.072 369.8 873.872 360.8 858.672 360.8C839.272 360.8 838.072 379.8 838.072 396V449Z" fill="#F1F1F1"/>
</svg>
